<svg width="1200" height="1200" viewBox="0 0 1200 1200" fill="none" xmlns="http://www.w3.org/2000/svg">
<path d="M549.131 313.939C538.002 236.88 591.009 165.327 667.524 154.12L789.238 136.292C865.753 125.085 936.801 178.468 947.929 255.526L973.22 430.655C984.348 507.713 931.342 579.266 854.827 590.473L733.113 608.301C656.598 619.508 585.549 566.125 574.421 489.067L549.131 313.939Z" fill="white"/>
<path fill-rule="evenodd" clip-rule="evenodd" d="M794.035 169.513L672.321 187.341C614.024 195.879 573.638 250.396 582.117 309.107L607.408 484.236C615.886 542.947 670.018 583.619 728.315 575.08L850.029 557.253C908.327 548.714 948.712 494.197 940.234 435.486L914.943 260.358C906.464 201.647 852.332 160.974 794.035 169.513ZM667.524 154.12C591.009 165.327 538.002 236.88 549.131 313.939L574.421 489.067C585.549 566.125 656.598 619.508 733.113 608.301L854.827 590.473C931.342 579.266 984.348 507.713 973.22 430.655L947.929 255.526C936.801 178.468 865.753 125.085 789.238 136.292L667.524 154.12Z" fill="#313131"/>
<path fill-rule="evenodd" clip-rule="evenodd" d="M791.636 152.903L669.922 170.73C602.516 180.603 555.82 243.638 565.624 311.523L590.914 486.651C600.718 554.536 663.308 601.564 730.714 591.691L852.428 573.863C919.834 563.99 966.53 500.955 956.727 433.07L931.436 257.942C921.633 190.057 859.042 143.03 791.636 152.903ZM667.524 154.12C591.009 165.327 538.002 236.88 549.131 313.939L574.421 489.067C585.549 566.125 656.598 619.508 733.113 608.301L854.827 590.473C931.342 579.266 984.348 507.713 973.22 430.655L947.929 255.526C936.801 178.468 865.753 125.085 789.238 136.292L667.524 154.12Z" fill="#313131"/>
<path d="M658.293 315.921C674.005 239.676 748.115 190.696 823.821 206.52L944.25 231.692C1019.96 247.516 1068.59 322.153 1052.88 398.397L1017.17 571.675C1001.46 647.919 927.346 696.899 851.64 681.075L731.212 655.903C655.505 640.079 606.87 565.443 622.583 489.199L658.293 315.921Z" fill="white"/>
<path fill-rule="evenodd" clip-rule="evenodd" d="M937.476 264.562L817.048 239.39C759.366 227.334 702.902 264.652 690.93 322.742L655.221 496.021C643.249 554.112 680.304 610.977 737.985 623.034L858.414 648.205C916.095 660.262 972.559 622.944 984.531 564.853L1020.24 391.575C1032.21 333.484 995.157 276.618 937.476 264.562ZM823.821 206.52C748.115 190.696 674.005 239.676 658.293 315.921L622.583 489.199C606.87 565.443 655.505 640.079 731.212 655.903L851.64 681.075C927.346 696.899 1001.46 647.919 1017.17 571.675L1052.88 398.397C1068.59 322.153 1019.96 247.516 944.25 231.692L823.821 206.52Z" fill="#313131"/>
<path fill-rule="evenodd" clip-rule="evenodd" d="M940.863 248.127L820.435 222.955C753.741 209.015 688.454 252.164 674.611 319.331L638.902 492.61C625.06 559.777 667.905 625.528 734.598 639.468L855.027 664.64C921.721 678.581 987.008 635.432 1000.85 568.264L1036.56 394.986C1050.4 327.818 1007.56 262.067 940.863 248.127ZM823.821 206.52C748.115 190.696 674.005 239.676 658.293 315.921L622.583 489.199C606.87 565.443 655.505 640.079 731.212 655.903L851.64 681.075C927.346 696.899 1001.46 647.919 1017.17 571.675L1052.88 398.397C1068.59 322.153 1019.96 247.516 944.25 231.692L823.821 206.52Z" fill="#313131"/>
<path d="M755.38 354.343C796.038 288.109 882.312 267.609 948.079 308.556L1052.7 373.692C1118.46 414.639 1138.82 501.526 1098.16 567.76L1005.76 718.288C965.098 784.522 878.824 805.021 813.057 764.074L708.44 698.939C642.673 657.992 622.319 571.105 662.977 504.871L755.38 354.343Z" fill="white"/>
<path fill-rule="evenodd" clip-rule="evenodd" d="M1035.17 402.246L930.551 337.11C880.443 305.913 814.71 321.531 783.732 371.995L691.33 522.523C660.352 572.987 675.86 639.187 725.968 670.385L830.585 735.52C880.693 766.718 946.426 751.099 977.404 700.635L1069.81 550.107C1100.78 499.643 1085.28 433.443 1035.17 402.246ZM948.079 308.556C882.312 267.609 796.038 288.109 755.38 354.343L662.977 504.871C622.319 571.105 642.673 657.992 708.44 698.939L813.057 764.074C878.824 805.021 965.098 784.522 1005.76 718.288L1098.16 567.76C1138.82 501.526 1118.46 414.639 1052.7 373.692L948.079 308.556Z" fill="#313131"/>
<path fill-rule="evenodd" clip-rule="evenodd" d="M1043.93 387.969L939.315 322.833C881.377 286.761 805.374 304.82 769.556 363.169L677.153 513.697C641.335 572.046 659.267 648.589 717.204 684.662L821.821 749.797C879.759 785.869 955.762 767.81 991.58 709.462L1083.98 558.933C1119.8 500.584 1101.87 424.041 1043.93 387.969ZM948.079 308.556C882.312 267.609 796.038 288.109 755.38 354.343L662.977 504.871C622.319 571.105 642.673 657.992 708.44 698.939L813.057 764.074C878.824 805.021 965.098 784.522 1005.76 718.288L1098.16 567.76C1138.82 501.526 1118.46 414.639 1052.7 373.692L948.079 308.556Z" fill="#313131"/>
<path d="M840.464 423.509C901.164 375.274 989.197 385.729 1037.09 446.86L1113.28 544.102C1161.17 605.233 1150.79 693.891 1090.09 742.126L952.142 851.748C891.443 899.983 803.409 889.529 755.515 828.398L679.327 731.155C631.433 670.025 641.813 581.366 702.513 533.131L840.464 423.509Z" fill="white"/>
<path fill-rule="evenodd" clip-rule="evenodd" d="M1087.11 564.896L1010.92 467.654C974.432 421.078 907.359 413.113 861.112 449.863L723.161 559.485C676.914 596.236 669.005 663.785 705.496 710.361L781.683 807.603C818.174 854.179 885.247 862.144 931.494 825.394L1069.45 715.772C1115.69 679.021 1123.6 611.472 1087.11 564.896ZM1037.09 446.86C989.197 385.729 901.164 375.274 840.464 423.509L702.513 533.131C641.813 581.366 631.433 670.025 679.327 731.155L755.515 828.398C803.409 889.529 891.443 899.983 952.142 851.748L1090.09 742.126C1150.79 693.891 1161.17 605.233 1113.28 544.102L1037.09 446.86Z" fill="#313131"/>
<path fill-rule="evenodd" clip-rule="evenodd" d="M1100.19 554.499L1024.01 457.257C981.814 403.403 904.261 394.194 850.788 436.686L712.837 546.308C659.363 588.801 650.219 666.905 692.412 720.758L768.599 818C810.792 871.854 888.345 881.064 941.818 838.571L1079.77 728.949C1133.24 686.456 1142.39 608.352 1100.19 554.499ZM1037.09 446.86C989.197 385.729 901.164 375.274 840.464 423.509L702.513 533.131C641.813 581.366 631.433 670.025 679.327 731.155L755.515 828.398C803.409 889.529 891.443 899.983 952.142 851.748L1090.09 742.126C1150.79 693.891 1161.17 605.233 1113.28 544.102L1037.09 446.86Z" fill="#313131"/>
<path d="M622.17 916.474C627.233 994.176 568.792 1061.3 491.638 1066.4L368.907 1074.51C291.753 1079.61 225.103 1020.75 220.04 943.05L208.534 766.459C203.471 688.757 261.912 621.634 339.066 616.535L461.797 608.424C538.951 603.325 605.601 662.181 610.664 739.883L622.17 916.474Z" fill="white"/>
<path fill-rule="evenodd" clip-rule="evenodd" d="M366.724 1041.01L489.455 1032.9C548.239 1029.02 592.766 977.874 588.908 918.672L577.402 742.081C573.544 682.88 522.763 638.037 463.979 641.922L341.249 650.033C282.465 653.918 237.938 705.059 241.796 764.261L253.302 940.852C257.16 1000.05 307.941 1044.9 366.724 1041.01ZM491.638 1066.4C568.792 1061.3 627.233 994.176 622.17 916.474L610.664 739.883C605.601 662.181 538.951 603.325 461.797 608.424L339.066 616.535C261.912 621.634 203.471 688.757 208.534 766.459L220.04 943.05C225.103 1020.75 291.753 1079.61 368.907 1074.51L491.638 1066.4Z" fill="#313131"/>
<path fill-rule="evenodd" clip-rule="evenodd" d="M367.816 1057.76L490.546 1049.65C558.515 1045.16 609.999 986.025 605.539 917.573L594.033 740.982C589.572 672.531 530.857 620.681 462.888 625.173L340.158 633.284C272.189 637.776 220.705 696.908 225.165 765.36L236.671 941.951C241.132 1010.4 299.847 1062.25 367.816 1057.76ZM491.638 1066.4C568.792 1061.3 627.233 994.176 622.17 916.474L610.664 739.883C605.601 662.181 538.951 603.325 461.797 608.424L339.066 616.535C261.912 621.634 203.471 688.757 208.534 766.459L220.04 943.05C225.103 1020.75 291.753 1079.61 368.907 1074.51L491.638 1066.4Z" fill="#313131"/>
<path d="M513.505 905.834C491.874 980.594 414.162 1023.54 339.929 1001.75L221.846 967.102C147.613 945.318 104.971 867.054 126.601 792.294L175.76 622.389C197.391 547.629 275.103 504.684 349.336 526.468L467.42 561.121C541.652 582.905 584.295 661.169 562.664 735.929L513.505 905.834Z" fill="white"/>
<path fill-rule="evenodd" clip-rule="evenodd" d="M231.171 934.872L349.254 969.525C405.813 986.123 465.022 953.402 481.502 896.443L530.662 726.538C547.142 669.578 514.653 609.948 458.095 593.351L340.011 558.698C283.453 542.1 224.243 574.821 207.763 631.78L158.604 801.685C142.123 858.645 174.613 918.275 231.171 934.872ZM339.929 1001.75C414.162 1023.54 491.874 980.594 513.505 905.834L562.664 735.929C584.295 661.169 541.652 582.905 467.42 561.121L349.336 526.468C275.103 504.684 197.391 547.629 175.76 622.389L126.601 792.294C104.971 867.054 147.613 945.318 221.846 967.102L339.929 1001.75Z" fill="#313131"/>
<path fill-rule="evenodd" clip-rule="evenodd" d="M226.508 950.987L344.592 985.64C409.987 1004.83 478.448 966.998 497.504 901.138L546.663 731.234C565.718 665.374 528.153 596.427 462.757 577.236L344.674 542.583C279.278 523.392 210.817 561.225 191.762 627.085L142.603 796.989C123.547 862.849 161.113 931.796 226.508 950.987ZM339.929 1001.75C414.162 1023.54 491.874 980.594 513.505 905.834L562.664 735.929C584.295 661.169 541.652 582.905 467.42 561.121L349.336 526.468C275.103 504.684 197.391 547.629 175.76 622.389L126.601 792.294C104.971 867.054 147.613 945.318 221.846 967.102L339.929 1001.75Z" fill="#313131"/>
<path d="M419.721 859.827C374.006 922.628 286.396 936.215 224.038 890.175L124.844 816.939C62.4863 770.899 48.9949 682.666 94.71 619.866L198.606 477.14C244.321 414.34 331.931 400.752 394.289 446.792L493.483 520.029C555.841 566.069 569.332 654.301 523.617 717.102L419.721 859.827Z" fill="white"/>
<path fill-rule="evenodd" clip-rule="evenodd" d="M144.552 789.865L243.746 863.101C291.257 898.179 358.008 887.827 392.838 839.979L496.734 697.254C531.564 649.406 521.285 582.181 473.775 547.103L374.581 473.866C327.07 438.788 260.319 449.14 225.489 496.989L121.593 639.714C86.7624 687.562 97.0417 754.787 144.552 789.865ZM224.038 890.175C286.396 936.215 374.006 922.628 419.721 859.827L523.617 717.102C569.332 654.301 555.841 566.069 493.483 520.029L394.289 446.792C331.931 400.752 244.321 414.34 198.606 477.14L94.71 619.866C48.9949 682.666 62.4863 770.899 124.844 816.939L224.038 890.175Z" fill="#313131"/>
<path fill-rule="evenodd" clip-rule="evenodd" d="M134.698 803.402L233.892 876.638C288.826 917.197 366.007 905.227 406.28 849.903L510.175 707.178C550.448 651.853 538.563 574.125 483.629 533.566L384.435 460.329C329.5 419.77 252.32 431.74 212.047 487.064L108.152 629.79C67.8787 685.114 79.764 762.843 134.698 803.402ZM224.038 890.175C286.396 936.215 374.006 922.628 419.721 859.827L523.617 717.102C569.332 654.301 555.841 566.069 493.483 520.029L394.289 446.792C331.931 400.752 244.321 414.34 198.606 477.14L94.71 619.866C48.9949 682.666 62.4863 770.899 124.844 816.939L224.038 890.175Z" fill="#313131"/>
<path d="M340.318 784.122C276.032 827.389 189.091 809.979 146.129 745.237L77.789 642.25C34.8274 577.507 52.1141 489.949 116.4 446.682L262.5 348.351C326.786 305.084 413.727 322.493 456.689 387.236L525.029 490.223C567.991 554.965 550.704 642.524 486.418 685.791L340.318 784.122Z" fill="white"/>
<path fill-rule="evenodd" clip-rule="evenodd" d="M105.503 623.597L173.843 726.584C206.576 775.912 272.817 789.176 321.797 756.211L467.897 657.88C516.877 624.914 530.048 558.203 497.315 508.876L428.975 405.888C396.242 356.561 330.001 343.297 281.022 376.262L134.921 474.593C85.9414 507.558 72.7706 574.269 105.503 623.597ZM146.129 745.237C189.091 809.979 276.032 827.389 340.318 784.122L486.418 685.791C550.704 642.524 567.991 554.965 525.029 490.223L456.689 387.236C413.727 322.493 326.786 305.084 262.5 348.351L116.4 446.682C52.1141 489.949 34.8274 577.507 77.789 642.25L146.129 745.237Z" fill="#313131"/>
<path fill-rule="evenodd" clip-rule="evenodd" d="M91.6462 632.923L159.986 735.91C197.833 792.945 274.424 808.282 331.057 770.166L477.158 671.835C533.79 633.719 549.019 556.584 511.172 499.549L442.832 396.562C404.985 339.527 328.394 324.19 271.761 362.306L125.661 460.637C69.0278 498.753 53.799 575.888 91.6462 632.923ZM146.129 745.237C189.091 809.979 276.032 827.389 340.318 784.122L486.418 685.791C550.704 642.524 567.991 554.965 525.029 490.223L456.689 387.236C413.727 322.493 326.786 305.084 262.5 348.351L116.4 446.682C52.1141 489.949 34.8274 577.507 77.789 642.25L146.129 745.237Z" fill="#313131"/>
</svg>
